<svg width="448" height="448" viewBox="0 0 448 448" fill="none" xmlns="http://www.w3.org/2000/svg">
<path d="M403.2 392H358.4V147L224 252L89.6 147V392H44.8V56H71.68L224 175L376.32 56H403.2V392ZM403.2 0H44.8C19.936 0 0 24.92 0 56V392C0 406.852 4.71998 421.096 13.1216 431.598C21.5232 442.1 32.9183 448 44.8 448H403.2C415.082 448 426.477 442.1 434.878 431.598C443.28 421.096 448 406.852 448 392V56C448 41.1479 443.28 26.9041 434.878 16.402C426.477 5.89998 415.082 0 403.2 0V0Z" fill="#491800"/>
</svg>
