<svg width="448" height="448" viewBox="0 0 448 448" fill="none" xmlns="http://www.w3.org/2000/svg">
<path fill-rule="evenodd" clip-rule="evenodd" d="M5.54012e-06 37.4284C5.54012e-06 27.5018 3.94334 17.9817 10.9625 10.9626C17.9817 3.94338 27.5017 4.98973e-05 37.4284 4.98973e-05H410.531C415.45 -0.00798461 420.323 0.954349 424.87 2.83195C429.417 4.70956 433.549 7.46556 437.029 10.9422C440.509 14.4188 443.27 18.5477 445.152 23.0926C447.035 27.6375 448.003 32.5091 448 37.4284V410.531C448.005 415.451 447.04 420.324 445.161 424.871C443.281 429.418 440.523 433.55 437.045 437.03C433.566 440.51 429.436 443.271 424.89 445.153C420.344 447.035 415.472 448.003 410.551 448H37.4284C32.5115 448 27.6428 447.031 23.1004 445.149C18.5581 443.267 14.4311 440.508 10.9553 437.03C7.4795 433.553 4.72298 429.424 2.84322 424.881C0.96347 420.337 -0.00266958 415.468 5.54012e-06 410.551V37.4284ZM177.327 170.81H237.99V201.274C246.746 183.761 269.146 168 302.807 168C367.34 168 382.633 202.883 382.633 266.886V385.443H317.327V281.466C317.327 245.015 308.57 224.448 286.333 224.448C255.482 224.448 242.653 246.624 242.653 281.466V385.443H177.327V170.81ZM65.3265 382.653H130.653V168H65.3265V382.633V382.653ZM140 97.9899C140.123 103.583 139.128 109.145 137.073 114.348C135.017 119.552 131.943 124.292 128.031 128.292C124.119 132.291 119.447 135.469 114.29 137.638C109.133 139.807 103.595 140.925 98 140.925C92.4053 140.925 86.867 139.807 81.71 137.638C76.5531 135.469 71.8814 132.291 67.9691 128.292C64.0568 124.292 60.9828 119.552 58.9275 114.348C56.8721 109.145 55.8768 103.583 56 97.9899C56.2418 87.0109 60.7729 76.5631 68.6231 68.8838C76.4733 61.2046 87.0184 56.9045 98 56.9045C108.982 56.9045 119.527 61.2046 127.377 68.8838C135.227 76.5631 139.758 87.0109 140 97.9899V97.9899Z" fill="#491800"/>
</svg>
